HIERARCHY
ROOT Hips
{
	OFFSET 0.00 0.00 0.00
	CHANNELS 6 Xposition Yposition Zposition Xrotation Yrotation Zrotation
	JOINT Spine
	{
		OFFSET 0.00000 7.17041 0.00000
		CHANNELS 3 Xrotation Yrotation Zrotation
		JOINT Head
		{
			OFFSET 0.00000 14.27615 0.00000
			CHANNELS 3 Xrotation Yrotation Zrotation
			End Site
			{
				OFFSET 0.00000 4.52755 0.00000
			}
		}
		JOINT LeftShoulder
		{
			OFFSET 0.00000 10.71824 0.00000
			CHANNELS 3 Xrotation Yrotation Zrotation
			JOINT LeftArm
			{
				OFFSET 7.05887 0.00000 0.00000
				CHANNELS 3 Xrotation Yrotation Zrotation
				JOINT LeftForeArm
				{
					OFFSET 10.95552 0.00000 0.00000
					CHANNELS 3 Yrotation Zrotation Xrotation
					JOINT LeftHand
					{
						OFFSET 8.19372 0.00000 0.00000
						CHANNELS 3 Xrotation Yrotation Zrotation
						JOINT LeftHandThumb1
						{
							OFFSET 0.00000 0.00000 0.00000
							CHANNELS 3 Xrotation Zrotation Yrotation
							End Site
							{
								OFFSET 0.00000 0.00000 3.93700
							}
						}
						End Site
						{
							OFFSET 3.93700 0.00000 0.00000
						}
					}
				}
			}
		}
		JOINT RightShoulder
		{
			OFFSET 0.00000 10.71824 0.00000
			CHANNELS 3 Xrotation Yrotation Zrotation
			JOINT RightArm
			{
				OFFSET -7.05887 0.00000 0.00000
				CHANNELS 3 Xrotation Yrotation Zrotation
				JOINT RightForeArm
				{
					OFFSET -10.95552 0.00000 0.00000
					CHANNELS 3 Yrotation Zrotation Xrotation
					JOINT RightHand
					{
						OFFSET -8.19372 0.00000 0.00000
						CHANNELS 3 Xrotation Yrotation Zrotation
						JOINT RightHandThumb1
						{
							OFFSET 0.00000 0.00000 0.00000
							CHANNELS 3 Xrotation Zrotation Yrotation
							End Site
							{
								OFFSET 0.00000 0.00000 3.93700
							}
						}
						End Site
						{
							OFFSET -3.93700 0.00000 0.00000
						}
					}
				}
			}
		}
	}
	JOINT LeftUpLeg
	{
		OFFSET 4.31835 0.00000 0.00000
		CHANNELS 3 Xrotation Yrotation Zrotation
		JOINT LeftLeg
		{
			OFFSET 0.00000 -17.32364 0.00000
			CHANNELS 3 Xrotation Yrotation Zrotation
			JOINT LeftFoot
			{
				OFFSET 0.00000 -16.27037 0.00000
				CHANNELS 3 Xrotation Yrotation Zrotation
				JOINT LeftToeBase
				{
					OFFSET 0.00000 -1.27412 4.75510
					CHANNELS 3 Xrotation Yrotation Zrotation
					End Site
					{
						OFFSET 0.00000 0.00000 2.95275
					}
				}
			}
		}
	}
	JOINT RightUpLeg
	{
		OFFSET -4.31835 0.00000 0.00000
		CHANNELS 3 Xrotation Yrotation Zrotation
		JOINT RightLeg
		{
			OFFSET 0.00000 -17.32364 0.00000
			CHANNELS 3 Xrotation Yrotation Zrotation
			JOINT RightFoot
			{
				OFFSET 0.00000 -16.27037 0.00000
				CHANNELS 3 Xrotation Yrotation Zrotation
				JOINT RightToeBase
				{
					OFFSET 0.00000 -1.27412 4.75510
					CHANNELS 3 Xrotation Yrotation Zrotation
					End Site
					{
						OFFSET 0.00000 0.00000 2.95275
					}
				}
			}
		}
	}
}
MOTION
Frames: 7
Frame Time: 0.008333
 -5.2907 35.1546 -9.0739 -1.1857 -7.5933 -6.7717 -4.2516 0.1765 9.4037 5.7967 -8.3003 -8.2539 17.8665 14.5843 -15.5610 -22.1438 -0.4302 -71.3405 -9.3525 0.0000 14.1231 -0.0497 -0.4643 -6.1129 33.1476 -0.0000 26.2537 -13.5447 -1.0680 -5.6464 -47.8049 -46.9905 19.4952 68.0955 0.0000 -18.3852 1.4115 9.7217 -8.3017 32.8623 0.0000 -24.3270 11.0755 16.7671 4.1905 -9.6262 -0.0000 -0.0000 -17.2596 29.0402 8.7015 22.8157 -0.0000 0.0000 8.8198 -2.1951 4.9762 -5.3229 -0.0000 0.0000 -4.8619 -27.2040 -5.5267 13.4458 0.0000 -0.0000
 -5.2893 35.1549 -9.0757 -1.1945 -7.5933 -6.7741 -4.2329 0.1723 9.3452 5.7651 -8.3579 -8.1794 17.9018 14.6123 -15.5855 -22.1763 -0.3490 -71.3636 -9.3256 0.0000 14.2494 -0.0456 -0.4160 -6.2524 33.1476 -0.0000 26.2537 -13.4920 -1.0360 -5.6614 -47.0963 -46.6654 19.9659 66.8793 0.0000 -16.9862 1.3911 9.4585 -8.4058 32.8623 0.0000 -24.3270 11.0811 16.7558 4.1889 -9.6219 0.0000 -0.0000 -17.2655 29.0536 8.7202 22.8006 0.0000 0.0000 8.8208 -2.1956 4.9736 -5.3127 0.0000 -0.0000 -4.8594 -27.1993 -5.5201 13.4125 -0.0000 -0.0000
 -5.2898 35.1549 -9.0761 -1.2051 -7.5909 -6.7746 -4.2165 0.1709 9.2678 5.7349 -8.4337 -8.0808 17.9727 14.6224 -15.5970 -22.1852 -0.3412 -71.3816 -9.3683 0.0000 14.1959 -0.0430 -0.4006 -6.1325 33.1476 -0.0000 26.2537 -13.4957 -0.9861 -5.7160 -46.3199 -46.4252 20.4707 65.6005 0.0000 -15.8922 1.3708 9.1270 -8.5789 32.8623 0.0000 -24.3270 11.0898 16.7502 4.1900 -9.6197 -0.0000 0.0000 -17.2744 29.0597 8.7159 22.7938 0.0000 -0.0000 8.8310 -2.2052 4.9754 -5.3137 0.0000 0.0000 -4.8537 -27.1989 -5.5060 13.3587 -0.0000 0.0000
 -5.2926 35.1541 -9.0769 -1.2032 -7.5817 -6.7666 -4.2202 0.1585 9.1703 5.7239 -8.4921 -7.9662 18.0400 14.6268 -15.5853 -22.1885 -0.3044 -71.3999 -9.3850 0.0000 14.1881 -0.0513 -0.4828 -6.0688 33.1476 -0.0000 26.2537 -13.5223 -0.9632 -5.7452 -45.4617 -46.1410 21.0578 64.2227 0.0000 -15.0392 1.3316 8.6973 -8.7394 32.8623 0.0000 -24.3270 11.0887 16.7264 4.1902 -9.6204 0.0000 0.0000 -17.2615 29.0704 8.7111 22.7766 0.0000 -0.0000 8.8360 -2.1990 4.9743 -5.3256 0.0000 -0.0000 -4.8657 -27.2093 -5.5275 13.3974 0.0000 -0.0000
 -5.2929 35.1542 -9.0783 -1.2226 -7.5883 -6.7772 -4.1848 0.1668 9.1097 5.6737 -8.5520 -7.8791 18.1135 14.6341 -15.6113 -22.2269 -0.2766 -71.4207 -9.4034 0.0000 14.1964 -0.0475 -0.4442 -6.1003 33.1476 -0.0000 26.2537 -13.5341 -0.9457 -5.7789 -44.6370 -45.8033 21.6153 62.7617 0.0000 -14.4459 1.3064 8.4310 -8.8407 32.8623 0.0000 -24.3270 11.1026 16.7322 4.1975 -9.6139 -0.0000 0.0000 -17.2785 29.0641 8.7426 22.7728 0.0000 -0.0000 8.8492 -2.1885 4.9801 -5.3215 -0.0000 -0.0000 -4.8576 -27.2082 -5.5195 13.4036 -0.0000 -0.0000
 -5.2943 35.1542 -9.0788 -1.2289 -7.5834 -6.7815 -4.1793 0.1659 9.0248 5.6596 -8.6051 -7.7535 18.1608 14.6400 -15.6071 -22.2129 -0.2857 -71.4416 -9.4097 0.0000 14.1997 -0.0433 -0.4020 -6.1474 33.1476 -0.0000 26.2537 -13.5099 -0.9298 -5.8032 -43.8991 -45.4897 22.1382 61.2168 0.0000 -14.1185 1.2241 7.9574 -8.7746 32.8623 0.0000 -24.3270 11.1055 16.7046 4.2137 -9.6010 0.0000 -0.0000 -17.2784 29.0167 8.7982 22.7796 0.0000 0.0000 8.8561 -2.1895 4.9858 -5.3210 -0.0000 -0.0000 -4.8668 -27.1997 -5.5399 13.4341 -0.0000 0.0000
 -5.2951 35.1539 -9.0780 -1.2415 -7.5847 -6.7754 -4.1659 0.1622 8.9285 5.6319 -8.6594 -7.6486 18.2235 14.6523 -15.6024 -22.2136 -0.2627 -71.4680 -9.4193 0.0000 14.2306 -0.0469 -0.4431 -6.0447 33.1476 -0.0000 26.2537 -13.4657 -0.9102 -5.8156 -43.2736 -45.1862 22.6356 59.5452 0.0000 -13.9495 1.1740 7.7626 -8.6274 32.8623 0.0000 -24.3270 11.1193 16.7177 4.2063 -9.5979 0.0000 0.0000 -17.2747 29.0007 8.7924 22.8183 -0.0000 -0.0000 8.8707 -2.1762 4.9789 -5.3274 0.0000 -0.0000 -4.8696 -27.2178 -5.5447 13.4040 0.0000 -0.0000
